<svg xmlns="http://www.w3.org/2000/svg" width="1020" height="505" viewBox="0 0 1020 505" role="img" aria-labelledby="title desc">
<title id="title">ShinBucketDeployment vs AWS BucketDeployment benchmark</title>
<desc id="desc">Benchmark comparing handler duration and memory usage. Lower is better.</desc>
<defs>
  <linearGradient id="shin" x1="0" y1="0" x2="1" y2="0">
    <stop offset="0" stop-color="#0ee89e"/><stop offset="0.5" stop-color="#18d4f8"/><stop offset="1" stop-color="#6ef0d0"/>
  </linearGradient>
  <linearGradient id="aws" x1="0" y1="0" x2="1" y2="0">
    <stop offset="0" stop-color="#e8384f"/><stop offset="0.5" stop-color="#ff6a2b"/><stop offset="1" stop-color="#ffa033"/>
  </linearGradient>
  <linearGradient id="bgGrad" x1="0" y1="0" x2="0" y2="1">
    <stop offset="0" stop-color="#0a1018"/><stop offset="1" stop-color="#0e1620"/>
  </linearGradient>
  <filter id="gS" x="-8%" y="-60%" width="116%" height="220%">
    <feGaussianBlur in="SourceGraphic" stdDeviation="4"/>
    <feColorMatrix type="matrix" values="0 0 0 0 0.06 0 0 0 0 0.85 0 0 0 0 0.7 0 0 0 0.6 0"/>
  </filter>
  <filter id="gA" x="-8%" y="-60%" width="116%" height="220%">
    <feGaussianBlur in="SourceGraphic" stdDeviation="3.5"/>
    <feColorMatrix type="matrix" values="0 0 0 0 0.95 0 0 0 0 0.35 0 0 0 0 0.15 0 0 0 0.4 0"/>
  </filter>
  <filter id="badgeShadow" x="-20%" y="-30%" width="140%" height="160%">
    <feDropShadow dx="0" dy="2" stdDeviation="3" flood-color="#000" flood-opacity="0.4"/>
  </filter>
</defs>

<!-- Background -->
<rect width="1020" height="505" fill="url(#bgGrad)"/>

<!-- Header -->
<text x="24" y="26" font-family="Inter, -apple-system, sans-serif" font-size="18" font-weight="800" fill="#f0f8ff" letter-spacing="-0.3">ShinBucketDeployment</text>
<text x="24" y="46" font-family="Inter, -apple-system, sans-serif" font-size="12" font-weight="500" fill="#5a7a94">vs AWS BucketDeployment · 1024 MiB · tiny-many · 2,584 objects · 7.8 MiB</text>
<rect x="820" y="12" width="12" height="8" rx="2" fill="url(#shin)"/>
<text x="838" y="20" font-family="Inter, -apple-system, sans-serif" font-size="10" font-weight="700" fill="#8ab8d0">SHIN</text>
<rect x="890" y="12" width="12" height="8" rx="2" fill="url(#aws)"/>
<text x="908" y="20" font-family="Inter, -apple-system, sans-serif" font-size="10" font-weight="700" fill="#8ab8d0">AWS</text>
<text x="820" y="42" font-family="Inter, -apple-system, sans-serif" font-size="10" font-weight="500" fill="#3d5a70">▼ lower is better</text>
<rect x="0" y="59" width="1020" height="1" fill="#1a2a38"/>

<rect y="60" width="1020" height="22" fill="#0c1420"/>
<text x="24" y="75" font-family="Inter, -apple-system, sans-serif" font-size="10" font-weight="700" fill="#4a6a80" letter-spacing="0.8">HANDLER DURATION</text>
<text x="740" y="75" font-family="Inter, -apple-system, sans-serif" font-size="10" font-weight="700" fill="#4a6a80" letter-spacing="0.8">SHIN</text>
<text x="830" y="75" font-family="Inter, -apple-system, sans-serif" font-size="10" font-weight="700" fill="#4a6a80" letter-spacing="0.8">AWS</text>
<text x="940" y="75" font-family="Inter, -apple-system, sans-serif" font-size="10" font-weight="700" fill="#4a6a80" letter-spacing="0.8">GAIN</text>
<rect x="0" y="82" width="1020" height="1" fill="#142230"/>
<text x="24" y="112" font-family="Inter, -apple-system, sans-serif" font-size="13" font-weight="600" fill="#c8e0f0">cold-create</text>
<rect x="180" y="94" width="540" height="11" rx="5.5" fill="#12202c"/>
<rect x="180" y="94" width="268.125" height="11" rx="5.5" fill="url(#shin)" filter="url(#gS)" opacity="0.5"/>
<rect x="180" y="94" width="268.125" height="11" rx="5.5" fill="url(#shin)"/>
<rect x="180" y="111" width="540" height="11" rx="5.5" fill="#12202c"/>
<rect x="180" y="111" width="511.875" height="11" rx="5.5" fill="url(#aws)" filter="url(#gA)" opacity="0.35"/>
<rect x="180" y="111" width="511.875" height="11" rx="5.5" fill="url(#aws)" opacity="0.75"/>
<text x="740" y="112" font-family="JetBrains Mono, monospace" font-size="12" font-weight="700" fill="#6ef0d0">14.3s</text>
<text x="830" y="112" font-family="JetBrains Mono, monospace" font-size="12" font-weight="400" fill="#5a7a94">27.3s</text>
<rect x="930" y="98" width="60" height="22" rx="5" fill="#12202c" filter="url(#badgeShadow)"/>
<text x="960" y="113" text-anchor="middle" font-family="JetBrains Mono, monospace" font-size="11" font-weight="800" fill="#f0f8ff">1.92×</text>
<rect x="24" y="132" width="966" height="1" fill="#142230"/>
<text x="24" y="162" font-family="Inter, -apple-system, sans-serif" font-size="13" font-weight="600" fill="#c8e0f0">forced-unchanged</text>
<rect x="180" y="144" width="540" height="11" rx="5.5" fill="#12202c"/>
<rect x="180" y="144" width="8.625" height="11" rx="5.5" fill="url(#shin)"/>
<rect x="180" y="161" width="540" height="11" rx="5.5" fill="#12202c"/>
<rect x="180" y="161" width="530.625" height="11" rx="5.5" fill="url(#aws)" filter="url(#gA)" opacity="0.35"/>
<rect x="180" y="161" width="530.625" height="11" rx="5.5" fill="url(#aws)" opacity="0.75"/>
<text x="740" y="162" font-family="JetBrains Mono, monospace" font-size="12" font-weight="700" fill="#6ef0d0">0.46s</text>
<text x="830" y="162" font-family="JetBrains Mono, monospace" font-size="12" font-weight="400" fill="#5a7a94">28.3s</text>
<rect x="930" y="148" width="60" height="22" rx="5" fill="#0a3028" stroke="#0ee89e" stroke-width="0.5" filter="url(#badgeShadow)"/>
<text x="960" y="163" text-anchor="middle" font-family="JetBrains Mono, monospace" font-size="11" font-weight="800" fill="#6ef0d0">61.4×</text>
<rect x="24" y="182" width="966" height="1" fill="#142230"/>
<text x="24" y="212" font-family="Inter, -apple-system, sans-serif" font-size="13" font-weight="600" fill="#c8e0f0">sparse-update</text>
<rect x="180" y="194" width="540" height="11" rx="5.5" fill="#12202c"/>
<rect x="180" y="194" width="11.625" height="11" rx="5.5" fill="url(#shin)"/>
<rect x="180" y="211" width="540" height="11" rx="5.5" fill="#12202c"/>
<rect x="180" y="211" width="540" height="11" rx="5.5" fill="url(#aws)" filter="url(#gA)" opacity="0.35"/>
<rect x="180" y="211" width="540" height="11" rx="5.5" fill="url(#aws)" opacity="0.75"/>
<text x="740" y="212" font-family="JetBrains Mono, monospace" font-size="12" font-weight="700" fill="#6ef0d0">0.62s</text>
<text x="830" y="212" font-family="JetBrains Mono, monospace" font-size="12" font-weight="400" fill="#5a7a94">28.8s</text>
<rect x="930" y="198" width="60" height="22" rx="5" fill="#12202c" filter="url(#badgeShadow)"/>
<text x="960" y="213" text-anchor="middle" font-family="JetBrains Mono, monospace" font-size="11" font-weight="800" fill="#f0f8ff">46.2×</text>
<rect x="24" y="232" width="966" height="1" fill="#142230"/>
<text x="24" y="262" font-family="Inter, -apple-system, sans-serif" font-size="13" font-weight="600" fill="#c8e0f0">prune-update</text>
<rect x="180" y="244" width="540" height="11" rx="5.5" fill="#12202c"/>
<rect x="180" y="244" width="296.25" height="11" rx="5.5" fill="url(#shin)" filter="url(#gS)" opacity="0.5"/>
<rect x="180" y="244" width="296.25" height="11" rx="5.5" fill="url(#shin)"/>
<rect x="180" y="261" width="540" height="11" rx="5.5" fill="#12202c"/>
<rect x="180" y="261" width="532.5" height="11" rx="5.5" fill="url(#aws)" filter="url(#gA)" opacity="0.35"/>
<rect x="180" y="261" width="532.5" height="11" rx="5.5" fill="url(#aws)" opacity="0.75"/>
<text x="740" y="262" font-family="JetBrains Mono, monospace" font-size="12" font-weight="700" fill="#6ef0d0">15.8s</text>
<text x="830" y="262" font-family="JetBrains Mono, monospace" font-size="12" font-weight="400" fill="#5a7a94">28.4s</text>
<rect x="930" y="248" width="60" height="22" rx="5" fill="#12202c" filter="url(#badgeShadow)"/>
<text x="960" y="263" text-anchor="middle" font-family="JetBrains Mono, monospace" font-size="11" font-weight="800" fill="#f0f8ff">1.8×</text>
<rect x="0" y="282" width="1020" height="1" fill="#1a2a38"/>
<rect y="283" width="1020" height="22" fill="#0c1420"/>
<text x="24" y="298" font-family="Inter, -apple-system, sans-serif" font-size="10" font-weight="700" fill="#4a6a80" letter-spacing="0.8">MAX MEMORY</text>
<text x="740" y="298" font-family="Inter, -apple-system, sans-serif" font-size="10" font-weight="700" fill="#4a6a80" letter-spacing="0.8">SHIN</text>
<text x="830" y="298" font-family="Inter, -apple-system, sans-serif" font-size="10" font-weight="700" fill="#4a6a80" letter-spacing="0.8">AWS</text>
<text x="940" y="298" font-family="Inter, -apple-system, sans-serif" font-size="10" font-weight="700" fill="#4a6a80" letter-spacing="0.8">SAVED</text>
<rect x="0" y="305" width="1020" height="1" fill="#142230"/>
<text x="24" y="335" font-family="Inter, -apple-system, sans-serif" font-size="13" font-weight="600" fill="#c8e0f0">cold-create</text>
<rect x="180" y="317" width="540" height="11" rx="5.5" fill="#12202c"/>
<rect x="180" y="317" width="199.34579439252335" height="11" rx="5.5" fill="url(#shin)" filter="url(#gS)" opacity="0.5"/>
<rect x="180" y="317" width="199.34579439252335" height="11" rx="5.5" fill="url(#shin)"/>
<rect x="180" y="334" width="540" height="11" rx="5.5" fill="#12202c"/>
<rect x="180" y="334" width="534.9532710280374" height="11" rx="5.5" fill="url(#aws)" filter="url(#gA)" opacity="0.35"/>
<rect x="180" y="334" width="534.9532710280374" height="11" rx="5.5" fill="url(#aws)" opacity="0.75"/>
<text x="740" y="335" font-family="JetBrains Mono, monospace" font-size="12" font-weight="700" fill="#6ef0d0">79 MiB</text>
<text x="830" y="335" font-family="JetBrains Mono, monospace" font-size="12" font-weight="400" fill="#5a7a94">212 MiB</text>
<rect x="930" y="321" width="60" height="22" rx="5" fill="#0a3028" stroke="#0ee89e" stroke-width="0.5" filter="url(#badgeShadow)"/>
<text x="960" y="336" text-anchor="middle" font-family="JetBrains Mono, monospace" font-size="11" font-weight="800" fill="#6ef0d0">−63%</text>
<rect x="24" y="355" width="966" height="1" fill="#142230"/>
<text x="24" y="385" font-family="Inter, -apple-system, sans-serif" font-size="13" font-weight="600" fill="#c8e0f0">forced-unchanged</text>
<rect x="180" y="367" width="540" height="11" rx="5.5" fill="#12202c"/>
<rect x="180" y="367" width="224.57943925233644" height="11" rx="5.5" fill="url(#shin)" filter="url(#gS)" opacity="0.5"/>
<rect x="180" y="367" width="224.57943925233644" height="11" rx="5.5" fill="url(#shin)"/>
<rect x="180" y="384" width="540" height="11" rx="5.5" fill="#12202c"/>
<rect x="180" y="384" width="540" height="11" rx="5.5" fill="url(#aws)" filter="url(#gA)" opacity="0.35"/>
<rect x="180" y="384" width="540" height="11" rx="5.5" fill="url(#aws)" opacity="0.75"/>
<text x="740" y="385" font-family="JetBrains Mono, monospace" font-size="12" font-weight="700" fill="#6ef0d0">89 MiB</text>
<text x="830" y="385" font-family="JetBrains Mono, monospace" font-size="12" font-weight="400" fill="#5a7a94">214 MiB</text>
<rect x="930" y="371" width="60" height="22" rx="5" fill="#12202c" filter="url(#badgeShadow)"/>
<text x="960" y="386" text-anchor="middle" font-family="JetBrains Mono, monospace" font-size="11" font-weight="800" fill="#f0f8ff">−58%</text>
<rect x="24" y="405" width="966" height="1" fill="#142230"/>
<text x="24" y="435" font-family="Inter, -apple-system, sans-serif" font-size="13" font-weight="600" fill="#c8e0f0">sparse-update</text>
<rect x="180" y="417" width="540" height="11" rx="5.5" fill="#12202c"/>
<rect x="180" y="417" width="224.57943925233644" height="11" rx="5.5" fill="url(#shin)" filter="url(#gS)" opacity="0.5"/>
<rect x="180" y="417" width="224.57943925233644" height="11" rx="5.5" fill="url(#shin)"/>
<rect x="180" y="434" width="540" height="11" rx="5.5" fill="#12202c"/>
<rect x="180" y="434" width="540" height="11" rx="5.5" fill="url(#aws)" filter="url(#gA)" opacity="0.35"/>
<rect x="180" y="434" width="540" height="11" rx="5.5" fill="url(#aws)" opacity="0.75"/>
<text x="740" y="435" font-family="JetBrains Mono, monospace" font-size="12" font-weight="700" fill="#6ef0d0">89 MiB</text>
<text x="830" y="435" font-family="JetBrains Mono, monospace" font-size="12" font-weight="400" fill="#5a7a94">214 MiB</text>
<rect x="930" y="421" width="60" height="22" rx="5" fill="#12202c" filter="url(#badgeShadow)"/>
<text x="960" y="436" text-anchor="middle" font-family="JetBrains Mono, monospace" font-size="11" font-weight="800" fill="#f0f8ff">−58%</text>
<rect x="24" y="455" width="966" height="1" fill="#142230"/>
<text x="24" y="485" font-family="Inter, -apple-system, sans-serif" font-size="13" font-weight="600" fill="#c8e0f0">prune-update</text>
<rect x="180" y="467" width="540" height="11" rx="5.5" fill="#12202c"/>
<rect x="180" y="467" width="239.7196261682243" height="11" rx="5.5" fill="url(#shin)" filter="url(#gS)" opacity="0.5"/>
<rect x="180" y="467" width="239.7196261682243" height="11" rx="5.5" fill="url(#shin)"/>
<rect x="180" y="484" width="540" height="11" rx="5.5" fill="#12202c"/>
<rect x="180" y="484" width="540" height="11" rx="5.5" fill="url(#aws)" filter="url(#gA)" opacity="0.35"/>
<rect x="180" y="484" width="540" height="11" rx="5.5" fill="url(#aws)" opacity="0.75"/>
<text x="740" y="485" font-family="JetBrains Mono, monospace" font-size="12" font-weight="700" fill="#6ef0d0">95 MiB</text>
<text x="830" y="485" font-family="JetBrains Mono, monospace" font-size="12" font-weight="400" fill="#5a7a94">214 MiB</text>
<rect x="930" y="471" width="60" height="22" rx="5" fill="#12202c" filter="url(#badgeShadow)"/>
<text x="960" y="486" text-anchor="middle" font-family="JetBrains Mono, monospace" font-size="11" font-weight="800" fill="#f0f8ff">−56%</text>
</svg>