<svg xmlns="http://www.w3.org/2000/svg" width="1180" height="560" viewBox="0 0 1180 560" role="img" aria-labelledby="title desc">
<title id="title">ShinBucketDeployment vs AWS BucketDeployment scorecard benchmark comparison</title>
<desc id="desc">Scorecard benchmark chart comparing Lambda handler duration and max memory usage by phase. Lower values are better.</desc>
<defs>
<linearGradient id="bg" x1="0" x2="1" y1="0" y2="1"><stop offset="0" stop-color="#07080f"/><stop offset="1" stop-color="#111827"/></linearGradient>
<linearGradient id="shin" x1="0" x2="1"><stop offset="0" stop-color="#a3e635"/><stop offset="0.55" stop-color="#22c55e"/><stop offset="1" stop-color="#10b981"/></linearGradient>
<linearGradient id="aws" x1="0" x2="1"><stop offset="0" stop-color="#8b5cf6"/><stop offset="0.55" stop-color="#ec4899"/><stop offset="1" stop-color="#fb7185"/></linearGradient>
<filter id="shadow" x="-20%" y="-40%" width="140%" height="180%"><feDropShadow dx="0" dy="7" stdDeviation="7" flood-color="#000" flood-opacity="0.28"/></filter>
<filter id="textShadow"><feDropShadow dx="0" dy="2" stdDeviation="2" flood-color="#00111f" flood-opacity="0.85"/></filter>
</defs>
<rect width="1180" height="560" fill="#111827"/>
<rect width="1180" height="176" fill="url(#bg)"/>
<path d="M0 166h1180v10H0z" fill="#06b6d4" opacity="0.7"/>
<g filter="url(#textShadow)" fill="#f8fbff">
<text x="32" y="55" font-family="Inter, Segoe UI, Arial, sans-serif" font-size="38" font-weight="700">ShinBucketDeployment</text>
<text x="32" y="92" font-family="Inter, Segoe UI, Arial, sans-serif" font-size="22" font-weight="600">phase scorecard vs AWS - 1024 MiB Lambda benchmark</text>
<text x="32" y="122" font-family="Inter, Segoe UI, Arial, sans-serif" font-size="16" opacity="0.9">2,584 files, 7.8 MiB source bundle, 2,585 catalog skips.</text>
</g>
<g transform="translate(674 28)" font-family="Inter, Segoe UI, Arial, sans-serif">
<rect x="0" y="0" width="138" height="26" rx="5" fill="#07080f" opacity="0.64"/>
<text x="9" y="11" font-size="8" font-weight="900" fill="#f8fbff" opacity="0.68">Profile</text>
<text x="9" y="22" font-size="11" font-weight="900" fill="#f8fbff">tiny-many</text>
<rect x="152" y="0" width="138" height="26" rx="5" fill="#07080f" opacity="0.64"/>
<text x="161" y="11" font-size="8" font-weight="900" fill="#f8fbff" opacity="0.68">Objects</text>
<text x="161" y="22" font-size="11" font-weight="900" fill="#f8fbff">2,584</text>
<rect x="304" y="0" width="138" height="26" rx="5" fill="#07080f" opacity="0.64"/>
<text x="313" y="11" font-size="8" font-weight="900" fill="#f8fbff" opacity="0.68">Bundle</text>
<text x="313" y="22" font-size="11" font-weight="900" fill="#f8fbff">7.8 MiB</text>
<rect x="0" y="34" width="138" height="26" rx="5" fill="#07080f" opacity="0.64"/>
<text x="9" y="45" font-size="8" font-weight="900" fill="#f8fbff" opacity="0.68">Best</text>
<text x="9" y="56" font-size="11" font-weight="900" fill="#f8fbff">61.443x faster</text>
<rect x="152" y="34" width="138" height="26" rx="5" fill="#07080f" opacity="0.64"/>
<text x="161" y="45" font-size="8" font-weight="900" fill="#f8fbff" opacity="0.68">Memory saved</text>
<text x="161" y="56" font-size="11" font-weight="900" fill="#f8fbff">133 MiB</text>
</g>
<g font-family="Inter, Segoe UI, Arial, sans-serif" font-size="13" font-weight="800" fill="#f8fbff">
<rect x="660" y="108" width="356" height="38" rx="6" fill="#07080f" opacity="0.6"/>
<rect x="674" y="118" width="16" height="10" rx="2" fill="url(#shin)"/><text x="698" y="127">ShinBucketDeployment</text>
<rect x="864" y="118" width="16" height="10" rx="2" fill="url(#aws)"/><text x="888" y="127">AWS BucketDeployment</text>
</g>
<rect x="28" y="200" width="1124" height="68" rx="8" fill="#f4f7fb" stroke="#263244" filter="url(#shadow)"/>
<text x="50" y="230" font-family="Inter, Segoe UI, Arial, sans-serif" font-size="18" font-weight="900" fill="#101623">cold-create</text>
<text x="50" y="250" font-family="Inter, Segoe UI, Arial, sans-serif" font-size="12" font-weight="800" fill="#5b6878">1024 MiB provider</text>
<text x="246" y="223" font-family="Inter, Segoe UI, Arial, sans-serif" font-size="11" font-weight="900" fill="#5b6878">handler duration</text>
<text x="246" y="242" font-family="Inter, Segoe UI, Arial, sans-serif" font-size="10" font-weight="900" fill="#101623">SHIN</text>
<rect x="316" y="231" width="240" height="12" rx="3" fill="#d7deea"/>
<rect x="316" y="231" width="118.99" height="12" rx="3" fill="url(#shin)"/>
<text x="564" y="242" font-family="Inter, Segoe UI, Arial, sans-serif" font-size="10" font-weight="900" fill="#101623">14.259 s</text>
<text x="246" y="261" font-family="Inter, Segoe UI, Arial, sans-serif" font-size="10" font-weight="900" fill="#101623">AWS</text>
<rect x="316" y="250" width="240" height="12" rx="3" fill="#d7deea"/>
<rect x="316" y="250" width="227.95" height="12" rx="3" fill="url(#aws)"/>
<text x="564" y="261" font-family="Inter, Segoe UI, Arial, sans-serif" font-size="10" font-weight="900" fill="#101623">27.316 s</text>
<text x="606" y="223" font-family="Inter, Segoe UI, Arial, sans-serif" font-size="11" font-weight="900" fill="#5b6878">max memory</text>
<text x="606" y="242" font-family="Inter, Segoe UI, Arial, sans-serif" font-size="10" font-weight="900" fill="#101623">SHIN</text>
<rect x="676" y="231" width="200" height="12" rx="3" fill="#d7deea"/>
<rect x="676" y="231" width="73.832" height="12" rx="3" fill="url(#shin)"/>
<text x="884" y="242" font-family="Inter, Segoe UI, Arial, sans-serif" font-size="10" font-weight="900" fill="#101623">79 MiB</text>
<text x="606" y="261" font-family="Inter, Segoe UI, Arial, sans-serif" font-size="10" font-weight="900" fill="#101623">AWS</text>
<rect x="676" y="250" width="200" height="12" rx="3" fill="#d7deea"/>
<rect x="676" y="250" width="198.131" height="12" rx="3" fill="url(#aws)"/>
<text x="884" y="261" font-family="Inter, Segoe UI, Arial, sans-serif" font-size="10" font-weight="900" fill="#101623">212 MiB</text>
<rect x="920" y="216" width="210" height="36" rx="6" fill="#171f2f"/>
<text x="1025" y="239" text-anchor="middle" font-family="Inter, Segoe UI, Arial, sans-serif" font-size="16" font-weight="900" fill="#eaf2ff">1.916x faster</text>
<rect x="28" y="282" width="1124" height="68" rx="8" fill="#f4f7fb" stroke="#263244" filter="url(#shadow)"/>
<text x="50" y="312" font-family="Inter, Segoe UI, Arial, sans-serif" font-size="18" font-weight="900" fill="#101623">forced-unchanged</text>
<text x="50" y="332" font-family="Inter, Segoe UI, Arial, sans-serif" font-size="12" font-weight="800" fill="#5b6878">1024 MiB provider</text>
<text x="246" y="305" font-family="Inter, Segoe UI, Arial, sans-serif" font-size="11" font-weight="900" fill="#5b6878">handler duration</text>
<text x="246" y="324" font-family="Inter, Segoe UI, Arial, sans-serif" font-size="10" font-weight="900" fill="#101623">SHIN</text>
<rect x="316" y="313" width="240" height="12" rx="3" fill="#d7deea"/>
<rect x="316" y="313" width="3.839" height="12" rx="3" fill="url(#shin)"/>
<text x="564" y="324" font-family="Inter, Segoe UI, Arial, sans-serif" font-size="10" font-weight="900" fill="#101623">0.46 s</text>
<text x="246" y="343" font-family="Inter, Segoe UI, Arial, sans-serif" font-size="10" font-weight="900" fill="#101623">AWS</text>
<rect x="316" y="332" width="240" height="12" rx="3" fill="#d7deea"/>
<rect x="316" y="332" width="235.861" height="12" rx="3" fill="url(#aws)"/>
<text x="564" y="343" font-family="Inter, Segoe UI, Arial, sans-serif" font-size="10" font-weight="900" fill="#101623">28.264 s</text>
<text x="606" y="305" font-family="Inter, Segoe UI, Arial, sans-serif" font-size="11" font-weight="900" fill="#5b6878">max memory</text>
<text x="606" y="324" font-family="Inter, Segoe UI, Arial, sans-serif" font-size="10" font-weight="900" fill="#101623">SHIN</text>
<rect x="676" y="313" width="200" height="12" rx="3" fill="#d7deea"/>
<rect x="676" y="313" width="83.178" height="12" rx="3" fill="url(#shin)"/>
<text x="884" y="324" font-family="Inter, Segoe UI, Arial, sans-serif" font-size="10" font-weight="900" fill="#101623">89 MiB</text>
<text x="606" y="343" font-family="Inter, Segoe UI, Arial, sans-serif" font-size="10" font-weight="900" fill="#101623">AWS</text>
<rect x="676" y="332" width="200" height="12" rx="3" fill="#d7deea"/>
<rect x="676" y="332" width="200" height="12" rx="3" fill="url(#aws)"/>
<text x="884" y="343" font-family="Inter, Segoe UI, Arial, sans-serif" font-size="10" font-weight="900" fill="#101623">214 MiB</text>
<rect x="920" y="298" width="210" height="36" rx="6" fill="#171f2f"/>
<text x="1025" y="321" text-anchor="middle" font-family="Inter, Segoe UI, Arial, sans-serif" font-size="16" font-weight="900" fill="#eaf2ff">61.443x faster</text>
<rect x="28" y="364" width="1124" height="68" rx="8" fill="#f4f7fb" stroke="#263244" filter="url(#shadow)"/>
<text x="50" y="394" font-family="Inter, Segoe UI, Arial, sans-serif" font-size="18" font-weight="900" fill="#101623">sparse-update</text>
<text x="50" y="414" font-family="Inter, Segoe UI, Arial, sans-serif" font-size="12" font-weight="800" fill="#5b6878">1024 MiB provider</text>
<text x="246" y="387" font-family="Inter, Segoe UI, Arial, sans-serif" font-size="11" font-weight="900" fill="#5b6878">handler duration</text>
<text x="246" y="406" font-family="Inter, Segoe UI, Arial, sans-serif" font-size="10" font-weight="900" fill="#101623">SHIN</text>
<rect x="316" y="395" width="240" height="12" rx="3" fill="#d7deea"/>
<rect x="316" y="395" width="5.191" height="12" rx="3" fill="url(#shin)"/>
<text x="564" y="406" font-family="Inter, Segoe UI, Arial, sans-serif" font-size="10" font-weight="900" fill="#101623">0.622 s</text>
<text x="246" y="425" font-family="Inter, Segoe UI, Arial, sans-serif" font-size="10" font-weight="900" fill="#101623">AWS</text>
<rect x="316" y="414" width="240" height="12" rx="3" fill="#d7deea"/>
<rect x="316" y="414" width="240" height="12" rx="3" fill="url(#aws)"/>
<text x="564" y="425" font-family="Inter, Segoe UI, Arial, sans-serif" font-size="10" font-weight="900" fill="#101623">28.76 s</text>
<text x="606" y="387" font-family="Inter, Segoe UI, Arial, sans-serif" font-size="11" font-weight="900" fill="#5b6878">max memory</text>
<text x="606" y="406" font-family="Inter, Segoe UI, Arial, sans-serif" font-size="10" font-weight="900" fill="#101623">SHIN</text>
<rect x="676" y="395" width="200" height="12" rx="3" fill="#d7deea"/>
<rect x="676" y="395" width="83.178" height="12" rx="3" fill="url(#shin)"/>
<text x="884" y="406" font-family="Inter, Segoe UI, Arial, sans-serif" font-size="10" font-weight="900" fill="#101623">89 MiB</text>
<text x="606" y="425" font-family="Inter, Segoe UI, Arial, sans-serif" font-size="10" font-weight="900" fill="#101623">AWS</text>
<rect x="676" y="414" width="200" height="12" rx="3" fill="#d7deea"/>
<rect x="676" y="414" width="200" height="12" rx="3" fill="url(#aws)"/>
<text x="884" y="425" font-family="Inter, Segoe UI, Arial, sans-serif" font-size="10" font-weight="900" fill="#101623">214 MiB</text>
<rect x="920" y="380" width="210" height="36" rx="6" fill="#171f2f"/>
<text x="1025" y="403" text-anchor="middle" font-family="Inter, Segoe UI, Arial, sans-serif" font-size="16" font-weight="900" fill="#eaf2ff">46.238x faster</text>
<rect x="28" y="446" width="1124" height="68" rx="8" fill="#f4f7fb" stroke="#263244" filter="url(#shadow)"/>
<text x="50" y="476" font-family="Inter, Segoe UI, Arial, sans-serif" font-size="18" font-weight="900" fill="#101623">prune-update</text>
<text x="50" y="496" font-family="Inter, Segoe UI, Arial, sans-serif" font-size="12" font-weight="800" fill="#5b6878">1024 MiB provider</text>
<text x="246" y="469" font-family="Inter, Segoe UI, Arial, sans-serif" font-size="11" font-weight="900" fill="#5b6878">handler duration</text>
<text x="246" y="488" font-family="Inter, Segoe UI, Arial, sans-serif" font-size="10" font-weight="900" fill="#101623">SHIN</text>
<rect x="316" y="477" width="240" height="12" rx="3" fill="#d7deea"/>
<rect x="316" y="477" width="131.499" height="12" rx="3" fill="url(#shin)"/>
<text x="564" y="488" font-family="Inter, Segoe UI, Arial, sans-serif" font-size="10" font-weight="900" fill="#101623">15.758 s</text>
<text x="246" y="507" font-family="Inter, Segoe UI, Arial, sans-serif" font-size="10" font-weight="900" fill="#101623">AWS</text>
<rect x="316" y="496" width="240" height="12" rx="3" fill="#d7deea"/>
<rect x="316" y="496" width="236.629" height="12" rx="3" fill="url(#aws)"/>
<text x="564" y="507" font-family="Inter, Segoe UI, Arial, sans-serif" font-size="10" font-weight="900" fill="#101623">28.356 s</text>
<text x="606" y="469" font-family="Inter, Segoe UI, Arial, sans-serif" font-size="11" font-weight="900" fill="#5b6878">max memory</text>
<text x="606" y="488" font-family="Inter, Segoe UI, Arial, sans-serif" font-size="10" font-weight="900" fill="#101623">SHIN</text>
<rect x="676" y="477" width="200" height="12" rx="3" fill="#d7deea"/>
<rect x="676" y="477" width="88.785" height="12" rx="3" fill="url(#shin)"/>
<text x="884" y="488" font-family="Inter, Segoe UI, Arial, sans-serif" font-size="10" font-weight="900" fill="#101623">95 MiB</text>
<text x="606" y="507" font-family="Inter, Segoe UI, Arial, sans-serif" font-size="10" font-weight="900" fill="#101623">AWS</text>
<rect x="676" y="496" width="200" height="12" rx="3" fill="#d7deea"/>
<rect x="676" y="496" width="200" height="12" rx="3" fill="url(#aws)"/>
<text x="884" y="507" font-family="Inter, Segoe UI, Arial, sans-serif" font-size="10" font-weight="900" fill="#101623">214 MiB</text>
<rect x="920" y="462" width="210" height="36" rx="6" fill="#171f2f"/>
<text x="1025" y="485" text-anchor="middle" font-family="Inter, Segoe UI, Arial, sans-serif" font-size="16" font-weight="900" fill="#eaf2ff">1.799x faster</text>
</svg>
