<svg xmlns="http://www.w3.org/2000/svg" width="1180" height="598" viewBox="0 0 1180 598" role="img" aria-labelledby="title desc">
<title id="title">ShinBucketDeployment vs AWS BucketDeployment phase cards benchmark comparison</title>
<desc id="desc">Phase card benchmark chart comparing Lambda handler duration and max memory usage. Lower values are better.</desc>
<defs>
<linearGradient id="bg" x1="0" x2="1" y1="0" y2="1"><stop offset="0" stop-color="#081018"/><stop offset="1" stop-color="#101923"/></linearGradient>
<linearGradient id="shin" x1="0" x2="1"><stop offset="0" stop-color="#22c55e"/><stop offset="0.55" stop-color="#14b8a6"/><stop offset="1" stop-color="#67e8f9"/></linearGradient>
<linearGradient id="aws" x1="0" x2="1"><stop offset="0" stop-color="#f43f5e"/><stop offset="0.55" stop-color="#f97316"/><stop offset="1" stop-color="#facc15"/></linearGradient>
<filter id="shadow" x="-20%" y="-40%" width="140%" height="180%"><feDropShadow dx="0" dy="7" stdDeviation="7" flood-color="#000" flood-opacity="0.28"/></filter>
<filter id="textShadow"><feDropShadow dx="0" dy="2" stdDeviation="2" flood-color="#00111f" flood-opacity="0.85"/></filter>
</defs>
<rect width="1180" height="598" fill="#dfe6e9"/>
<rect width="1180" height="176" fill="url(#bg)"/>
<path d="M0 166h1180v10H0z" fill="#eec643" opacity="0.7"/>
<g filter="url(#textShadow)" fill="#f8fbfd">
<text x="32" y="55" font-family="Inter, Segoe UI, Arial, sans-serif" font-size="38" font-weight="700">ShinBucketDeployment</text>
<text x="32" y="92" font-family="Inter, Segoe UI, Arial, sans-serif" font-size="22" font-weight="600">phase cards vs AWS - 1024 MiB Lambda benchmark</text>
<text x="32" y="122" font-family="Inter, Segoe UI, Arial, sans-serif" font-size="16" opacity="0.9">Lower bars are better; duration and memory are grouped by deployment phase.</text>
</g>
<g transform="translate(674 28)" font-family="Inter, Segoe UI, Arial, sans-serif">
<rect x="0" y="0" width="138" height="26" rx="5" fill="#081018" opacity="0.64"/>
<text x="9" y="11" font-size="8" font-weight="900" fill="#f8fbfd" opacity="0.68">Profile</text>
<text x="9" y="22" font-size="11" font-weight="900" fill="#f8fbfd">tiny-many</text>
<rect x="152" y="0" width="138" height="26" rx="5" fill="#081018" opacity="0.64"/>
<text x="161" y="11" font-size="8" font-weight="900" fill="#f8fbfd" opacity="0.68">Objects</text>
<text x="161" y="22" font-size="11" font-weight="900" fill="#f8fbfd">2,584</text>
<rect x="304" y="0" width="138" height="26" rx="5" fill="#081018" opacity="0.64"/>
<text x="313" y="11" font-size="8" font-weight="900" fill="#f8fbfd" opacity="0.68">Bundle</text>
<text x="313" y="22" font-size="11" font-weight="900" fill="#f8fbfd">7.8 MiB</text>
<rect x="0" y="34" width="138" height="26" rx="5" fill="#081018" opacity="0.64"/>
<text x="9" y="45" font-size="8" font-weight="900" fill="#f8fbfd" opacity="0.68">Best</text>
<text x="9" y="56" font-size="11" font-weight="900" fill="#f8fbfd">61.443x faster</text>
<rect x="152" y="34" width="138" height="26" rx="5" fill="#081018" opacity="0.64"/>
<text x="161" y="45" font-size="8" font-weight="900" fill="#f8fbfd" opacity="0.68">Memory saved</text>
<text x="161" y="56" font-size="11" font-weight="900" fill="#f8fbfd">133 MiB</text>
</g>
<g font-family="Inter, Segoe UI, Arial, sans-serif" font-size="13" font-weight="800" fill="#f8fbfd">
<rect x="660" y="108" width="356" height="38" rx="6" fill="#081018" opacity="0.6"/>
<rect x="674" y="118" width="16" height="10" rx="2" fill="url(#shin)"/><text x="698" y="127">ShinBucketDeployment</text>
<rect x="864" y="118" width="16" height="10" rx="2" fill="url(#aws)"/><text x="888" y="127">AWS BucketDeployment</text>
</g>
<rect x="28" y="200" width="550" height="172" rx="8" fill="#f7fafb" stroke="#c9d4da" filter="url(#shadow)"/>
<text x="50" y="236" font-family="Inter, Segoe UI, Arial, sans-serif" font-size="22" font-weight="900" fill="#111820">cold-create</text>
<text x="50" y="258" font-family="Inter, Segoe UI, Arial, sans-serif" font-size="12" font-weight="900" fill="#576875">1024 MiB provider</text>
<rect x="404" y="218" width="150" height="34" rx="6" fill="#12212d"/>
<text x="479" y="240" text-anchor="middle" font-family="Inter, Segoe UI, Arial, sans-serif" font-size="14" font-weight="900" fill="#f8fbfd">1.916x faster</text>
<text x="479" y="270" text-anchor="middle" font-family="Inter, Segoe UI, Arial, sans-serif" font-size="12" font-weight="900" fill="#576875">133 MiB saved</text>
<text x="50" y="297" font-family="Inter, Segoe UI, Arial, sans-serif" font-size="11" font-weight="900" fill="#576875">handler duration</text>
<text x="50" y="316" font-family="Inter, Segoe UI, Arial, sans-serif" font-size="10" font-weight="900" fill="#111820">SHIN</text>
<rect x="120" y="305" width="160" height="12" rx="3" fill="#d9e2e7"/>
<rect x="120" y="305" width="79.327" height="12" rx="3" fill="url(#shin)"/>
<text x="288" y="316" font-family="Inter, Segoe UI, Arial, sans-serif" font-size="10" font-weight="900" fill="#111820">14.259 s</text>
<text x="50" y="335" font-family="Inter, Segoe UI, Arial, sans-serif" font-size="10" font-weight="900" fill="#111820">AWS</text>
<rect x="120" y="324" width="160" height="12" rx="3" fill="#d9e2e7"/>
<rect x="120" y="324" width="151.967" height="12" rx="3" fill="url(#aws)"/>
<text x="288" y="335" font-family="Inter, Segoe UI, Arial, sans-serif" font-size="10" font-weight="900" fill="#111820">27.316 s</text>
<text x="320" y="297" font-family="Inter, Segoe UI, Arial, sans-serif" font-size="11" font-weight="900" fill="#576875">max memory</text>
<text x="320" y="316" font-family="Inter, Segoe UI, Arial, sans-serif" font-size="10" font-weight="900" fill="#111820">SHIN</text>
<rect x="390" y="305" width="140" height="12" rx="3" fill="#d9e2e7"/>
<rect x="390" y="305" width="51.682" height="12" rx="3" fill="url(#shin)"/>
<text x="538" y="316" font-family="Inter, Segoe UI, Arial, sans-serif" font-size="10" font-weight="900" fill="#111820">79 MiB</text>
<text x="320" y="335" font-family="Inter, Segoe UI, Arial, sans-serif" font-size="10" font-weight="900" fill="#111820">AWS</text>
<rect x="390" y="324" width="140" height="12" rx="3" fill="#d9e2e7"/>
<rect x="390" y="324" width="138.692" height="12" rx="3" fill="url(#aws)"/>
<text x="538" y="335" font-family="Inter, Segoe UI, Arial, sans-serif" font-size="10" font-weight="900" fill="#111820">212 MiB</text>
<rect x="602" y="200" width="550" height="172" rx="8" fill="#f7fafb" stroke="#c9d4da" filter="url(#shadow)"/>
<text x="624" y="236" font-family="Inter, Segoe UI, Arial, sans-serif" font-size="22" font-weight="900" fill="#111820">forced-unchanged</text>
<text x="624" y="258" font-family="Inter, Segoe UI, Arial, sans-serif" font-size="12" font-weight="900" fill="#576875">1024 MiB provider</text>
<rect x="978" y="218" width="150" height="34" rx="6" fill="#12212d"/>
<text x="1053" y="240" text-anchor="middle" font-family="Inter, Segoe UI, Arial, sans-serif" font-size="14" font-weight="900" fill="#f8fbfd">61.443x faster</text>
<text x="1053" y="270" text-anchor="middle" font-family="Inter, Segoe UI, Arial, sans-serif" font-size="12" font-weight="900" fill="#576875">125 MiB saved</text>
<text x="624" y="297" font-family="Inter, Segoe UI, Arial, sans-serif" font-size="11" font-weight="900" fill="#576875">handler duration</text>
<text x="624" y="316" font-family="Inter, Segoe UI, Arial, sans-serif" font-size="10" font-weight="900" fill="#111820">SHIN</text>
<rect x="694" y="305" width="160" height="12" rx="3" fill="#d9e2e7"/>
<rect x="694" y="305" width="2.559" height="12" rx="3" fill="url(#shin)"/>
<text x="862" y="316" font-family="Inter, Segoe UI, Arial, sans-serif" font-size="10" font-weight="900" fill="#111820">0.46 s</text>
<text x="624" y="335" font-family="Inter, Segoe UI, Arial, sans-serif" font-size="10" font-weight="900" fill="#111820">AWS</text>
<rect x="694" y="324" width="160" height="12" rx="3" fill="#d9e2e7"/>
<rect x="694" y="324" width="157.241" height="12" rx="3" fill="url(#aws)"/>
<text x="862" y="335" font-family="Inter, Segoe UI, Arial, sans-serif" font-size="10" font-weight="900" fill="#111820">28.264 s</text>
<text x="894" y="297" font-family="Inter, Segoe UI, Arial, sans-serif" font-size="11" font-weight="900" fill="#576875">max memory</text>
<text x="894" y="316" font-family="Inter, Segoe UI, Arial, sans-serif" font-size="10" font-weight="900" fill="#111820">SHIN</text>
<rect x="964" y="305" width="140" height="12" rx="3" fill="#d9e2e7"/>
<rect x="964" y="305" width="58.224" height="12" rx="3" fill="url(#shin)"/>
<text x="1112" y="316" font-family="Inter, Segoe UI, Arial, sans-serif" font-size="10" font-weight="900" fill="#111820">89 MiB</text>
<text x="894" y="335" font-family="Inter, Segoe UI, Arial, sans-serif" font-size="10" font-weight="900" fill="#111820">AWS</text>
<rect x="964" y="324" width="140" height="12" rx="3" fill="#d9e2e7"/>
<rect x="964" y="324" width="140" height="12" rx="3" fill="url(#aws)"/>
<text x="1112" y="335" font-family="Inter, Segoe UI, Arial, sans-serif" font-size="10" font-weight="900" fill="#111820">214 MiB</text>
<rect x="28" y="396" width="550" height="172" rx="8" fill="#f7fafb" stroke="#c9d4da" filter="url(#shadow)"/>
<text x="50" y="432" font-family="Inter, Segoe UI, Arial, sans-serif" font-size="22" font-weight="900" fill="#111820">sparse-update</text>
<text x="50" y="454" font-family="Inter, Segoe UI, Arial, sans-serif" font-size="12" font-weight="900" fill="#576875">1024 MiB provider</text>
<rect x="404" y="414" width="150" height="34" rx="6" fill="#12212d"/>
<text x="479" y="436" text-anchor="middle" font-family="Inter, Segoe UI, Arial, sans-serif" font-size="14" font-weight="900" fill="#f8fbfd">46.238x faster</text>
<text x="479" y="466" text-anchor="middle" font-family="Inter, Segoe UI, Arial, sans-serif" font-size="12" font-weight="900" fill="#576875">125 MiB saved</text>
<text x="50" y="493" font-family="Inter, Segoe UI, Arial, sans-serif" font-size="11" font-weight="900" fill="#576875">handler duration</text>
<text x="50" y="512" font-family="Inter, Segoe UI, Arial, sans-serif" font-size="10" font-weight="900" fill="#111820">SHIN</text>
<rect x="120" y="501" width="160" height="12" rx="3" fill="#d9e2e7"/>
<rect x="120" y="501" width="3.46" height="12" rx="3" fill="url(#shin)"/>
<text x="288" y="512" font-family="Inter, Segoe UI, Arial, sans-serif" font-size="10" font-weight="900" fill="#111820">0.622 s</text>
<text x="50" y="531" font-family="Inter, Segoe UI, Arial, sans-serif" font-size="10" font-weight="900" fill="#111820">AWS</text>
<rect x="120" y="520" width="160" height="12" rx="3" fill="#d9e2e7"/>
<rect x="120" y="520" width="160" height="12" rx="3" fill="url(#aws)"/>
<text x="288" y="531" font-family="Inter, Segoe UI, Arial, sans-serif" font-size="10" font-weight="900" fill="#111820">28.76 s</text>
<text x="320" y="493" font-family="Inter, Segoe UI, Arial, sans-serif" font-size="11" font-weight="900" fill="#576875">max memory</text>
<text x="320" y="512" font-family="Inter, Segoe UI, Arial, sans-serif" font-size="10" font-weight="900" fill="#111820">SHIN</text>
<rect x="390" y="501" width="140" height="12" rx="3" fill="#d9e2e7"/>
<rect x="390" y="501" width="58.224" height="12" rx="3" fill="url(#shin)"/>
<text x="538" y="512" font-family="Inter, Segoe UI, Arial, sans-serif" font-size="10" font-weight="900" fill="#111820">89 MiB</text>
<text x="320" y="531" font-family="Inter, Segoe UI, Arial, sans-serif" font-size="10" font-weight="900" fill="#111820">AWS</text>
<rect x="390" y="520" width="140" height="12" rx="3" fill="#d9e2e7"/>
<rect x="390" y="520" width="140" height="12" rx="3" fill="url(#aws)"/>
<text x="538" y="531" font-family="Inter, Segoe UI, Arial, sans-serif" font-size="10" font-weight="900" fill="#111820">214 MiB</text>
<rect x="602" y="396" width="550" height="172" rx="8" fill="#f7fafb" stroke="#c9d4da" filter="url(#shadow)"/>
<text x="624" y="432" font-family="Inter, Segoe UI, Arial, sans-serif" font-size="22" font-weight="900" fill="#111820">prune-update</text>
<text x="624" y="454" font-family="Inter, Segoe UI, Arial, sans-serif" font-size="12" font-weight="900" fill="#576875">1024 MiB provider</text>
<rect x="978" y="414" width="150" height="34" rx="6" fill="#12212d"/>
<text x="1053" y="436" text-anchor="middle" font-family="Inter, Segoe UI, Arial, sans-serif" font-size="14" font-weight="900" fill="#f8fbfd">1.799x faster</text>
<text x="1053" y="466" text-anchor="middle" font-family="Inter, Segoe UI, Arial, sans-serif" font-size="12" font-weight="900" fill="#576875">119 MiB saved</text>
<text x="624" y="493" font-family="Inter, Segoe UI, Arial, sans-serif" font-size="11" font-weight="900" fill="#576875">handler duration</text>
<text x="624" y="512" font-family="Inter, Segoe UI, Arial, sans-serif" font-size="10" font-weight="900" fill="#111820">SHIN</text>
<rect x="694" y="501" width="160" height="12" rx="3" fill="#d9e2e7"/>
<rect x="694" y="501" width="87.666" height="12" rx="3" fill="url(#shin)"/>
<text x="862" y="512" font-family="Inter, Segoe UI, Arial, sans-serif" font-size="10" font-weight="900" fill="#111820">15.758 s</text>
<text x="624" y="531" font-family="Inter, Segoe UI, Arial, sans-serif" font-size="10" font-weight="900" fill="#111820">AWS</text>
<rect x="694" y="520" width="160" height="12" rx="3" fill="#d9e2e7"/>
<rect x="694" y="520" width="157.752" height="12" rx="3" fill="url(#aws)"/>
<text x="862" y="531" font-family="Inter, Segoe UI, Arial, sans-serif" font-size="10" font-weight="900" fill="#111820">28.356 s</text>
<text x="894" y="493" font-family="Inter, Segoe UI, Arial, sans-serif" font-size="11" font-weight="900" fill="#576875">max memory</text>
<text x="894" y="512" font-family="Inter, Segoe UI, Arial, sans-serif" font-size="10" font-weight="900" fill="#111820">SHIN</text>
<rect x="964" y="501" width="140" height="12" rx="3" fill="#d9e2e7"/>
<rect x="964" y="501" width="62.15" height="12" rx="3" fill="url(#shin)"/>
<text x="1112" y="512" font-family="Inter, Segoe UI, Arial, sans-serif" font-size="10" font-weight="900" fill="#111820">95 MiB</text>
<text x="894" y="531" font-family="Inter, Segoe UI, Arial, sans-serif" font-size="10" font-weight="900" fill="#111820">AWS</text>
<rect x="964" y="520" width="140" height="12" rx="3" fill="#d9e2e7"/>
<rect x="964" y="520" width="140" height="12" rx="3" fill="url(#aws)"/>
<text x="1112" y="531" font-family="Inter, Segoe UI, Arial, sans-serif" font-size="10" font-weight="900" fill="#111820">214 MiB</text>
</svg>
