<svg xmlns="http://www.w3.org/2000/svg" width="1060" height="460" viewBox="0 0 1060 460" role="img" aria-labelledby="title desc">
<title id="title">ShinBucketDeployment vs AWS BucketDeployment benchmark comparison</title>
<desc id="desc">Benchmark chart comparing Lambda handler duration and max memory usage. Lower values are better.</desc>
<defs>
  <pattern id="dots" x="0" y="0" width="20" height="20" patternUnits="userSpaceOnUse">
    <circle cx="2" cy="2" r="0.6" fill="#d4d4d8" opacity="0.5"/>
  </pattern>
  <linearGradient id="accent" x1="0" y1="0" x2="0" y2="1">
    <stop offset="0" stop-color="#6366f1"/>
    <stop offset="1" stop-color="#8b5cf6"/>
  </linearGradient>
</defs>

<!-- Canvas -->
<rect width="1060" height="460" fill="#fafafa"/>
<rect width="1060" height="460" fill="url(#dots)"/>

<!-- Accent stripe left edge -->
<rect width="4" height="460" fill="url(#accent)"/>

<!-- Header row: y=0..60 -->
<rect x="4" y="0" width="1056" height="60" fill="#ffffff"/>
<rect x="4" y="59" width="1056" height="1" fill="#e4e4e7"/>
<text x="28" y="26" font-family="Inter, system-ui, sans-serif" font-size="17" font-weight="700" fill="#09090b">ShinBucketDeployment</text>
<text x="248" y="26" font-family="Inter, system-ui, sans-serif" font-size="17" font-weight="400" fill="#71717a">vs AWS BucketDeployment</text>
<text x="28" y="46" font-family="Inter, system-ui, sans-serif" font-size="11" font-weight="400" fill="#a1a1aa">1024 MiB · tiny-many · 2,584 objects · 7.8 MiB bundle</text>

<!-- Legend: top-right -->
<rect x="820" y="16" width="10" height="10" rx="2" fill="#18181b"/>
<text x="836" y="25" font-family="Inter, system-ui, sans-serif" font-size="10" font-weight="600" fill="#3f3f46">Shin</text>
<rect x="880" y="16" width="10" height="10" rx="2" fill="#e4e4e7" stroke="#d4d4d8" stroke-width="0.5"/>
<text x="896" y="25" font-family="Inter, system-ui, sans-serif" font-size="10" font-weight="600" fill="#71717a">AWS CDK</text>
<rect x="960" y="14" width="72" height="16" rx="3" fill="#f0fdf4" stroke="#bbf7d0" stroke-width="0.5"/>
<text x="996" y="25" text-anchor="middle" font-family="JetBrains Mono, monospace" font-size="9" font-weight="700" fill="#16a34a">61.4× best</text>

<!-- DURATION SECTION -->
<rect x="4" y="60" width="524" height="28" fill="#f4f4f5"/>
<text x="28" y="79" font-family="Inter, system-ui, sans-serif" font-size="11" font-weight="600" fill="#52525b">HANDLER DURATION</text>
<text x="430" y="79" font-family="Inter, system-ui, sans-serif" font-size="11" font-weight="600" fill="#52525b">TIME</text>
<text x="500" y="79" font-family="Inter, system-ui, sans-serif" font-size="11" font-weight="600" fill="#52525b">GAIN</text>

<!-- Row 1: cold-create, y=88 -->
<text x="28" y="108" font-family="Inter, system-ui, sans-serif" font-size="12" font-weight="500" fill="#3f3f46">cold-create</text>
<rect x="160" y="96" width="260" height="16" rx="3" fill="#f4f4f5"/>
<rect x="160" y="96" width="129" height="16" rx="3" fill="#18181b"/>
<rect x="160" y="116" width="260" height="16" rx="3" fill="#f4f4f5"/>
<rect x="160" y="116" width="246" height="16" rx="3" fill="#e4e4e7" stroke="#d4d4d8" stroke-width="0.5"/>
<text x="430" y="108" font-family="JetBrains Mono, monospace" font-size="11" font-weight="600" fill="#09090b">14.3 s</text>
<text x="430" y="128" font-family="JetBrains Mono, monospace" font-size="11" font-weight="400" fill="#71717a">27.3 s</text>
<rect x="500" y="100" width="44" height="18" rx="3" fill="#f4f4f5" stroke="#e4e4e7" stroke-width="0.5"/>
<text x="522" y="113" text-anchor="middle" font-family="JetBrains Mono, monospace" font-size="9" font-weight="700" fill="#09090b">1.92×</text>

<!-- Row 2: forced-unchanged, y=144 -->
<rect x="28" y="143" width="516" height="1" fill="#f4f4f5"/>
<text x="28" y="164" font-family="Inter, system-ui, sans-serif" font-size="12" font-weight="500" fill="#3f3f46">forced-unchanged</text>
<rect x="160" y="152" width="260" height="16" rx="3" fill="#f4f4f5"/>
<rect x="160" y="152" width="4" height="16" rx="2" fill="#18181b"/>
<rect x="160" y="172" width="260" height="16" rx="3" fill="#f4f4f5"/>
<rect x="160" y="172" width="255" height="16" rx="3" fill="#e4e4e7" stroke="#d4d4d8" stroke-width="0.5"/>
<text x="430" y="164" font-family="JetBrains Mono, monospace" font-size="11" font-weight="600" fill="#09090b">0.46 s</text>
<text x="430" y="184" font-family="JetBrains Mono, monospace" font-size="11" font-weight="400" fill="#71717a">28.3 s</text>
<rect x="500" y="156" width="44" height="18" rx="3" fill="#f0fdf4" stroke="#bbf7d0" stroke-width="0.5"/>
<text x="522" y="169" text-anchor="middle" font-family="JetBrains Mono, monospace" font-size="9" font-weight="700" fill="#16a34a">61.4×</text>

<!-- Row 3: sparse-update, y=200 -->
<rect x="28" y="199" width="516" height="1" fill="#f4f4f5"/>
<text x="28" y="220" font-family="Inter, system-ui, sans-serif" font-size="12" font-weight="500" fill="#3f3f46">sparse-update</text>
<rect x="160" y="208" width="260" height="16" rx="3" fill="#f4f4f5"/>
<rect x="160" y="208" width="6" height="16" rx="2" fill="#18181b"/>
<rect x="160" y="228" width="260" height="16" rx="3" fill="#f4f4f5"/>
<rect x="160" y="228" width="260" height="16" rx="3" fill="#e4e4e7" stroke="#d4d4d8" stroke-width="0.5"/>
<text x="430" y="220" font-family="JetBrains Mono, monospace" font-size="11" font-weight="600" fill="#09090b">0.62 s</text>
<text x="430" y="240" font-family="JetBrains Mono, monospace" font-size="11" font-weight="400" fill="#71717a">28.8 s</text>
<rect x="500" y="212" width="44" height="18" rx="3" fill="#f4f4f5" stroke="#e4e4e7" stroke-width="0.5"/>
<text x="522" y="225" text-anchor="middle" font-family="JetBrains Mono, monospace" font-size="9" font-weight="700" fill="#09090b">46.2×</text>

<!-- Row 4: prune-update, y=256 -->
<rect x="28" y="255" width="516" height="1" fill="#f4f4f5"/>
<text x="28" y="276" font-family="Inter, system-ui, sans-serif" font-size="12" font-weight="500" fill="#3f3f46">prune-update</text>
<rect x="160" y="264" width="260" height="16" rx="3" fill="#f4f4f5"/>
<rect x="160" y="264" width="143" height="16" rx="3" fill="#18181b"/>
<rect x="160" y="284" width="260" height="16" rx="3" fill="#f4f4f5"/>
<rect x="160" y="284" width="256" height="16" rx="3" fill="#e4e4e7" stroke="#d4d4d8" stroke-width="0.5"/>
<text x="430" y="276" font-family="JetBrains Mono, monospace" font-size="11" font-weight="600" fill="#09090b">15.8 s</text>
<text x="430" y="296" font-family="JetBrains Mono, monospace" font-size="11" font-weight="400" fill="#71717a">28.4 s</text>
<rect x="500" y="268" width="44" height="18" rx="3" fill="#f4f4f5" stroke="#e4e4e7" stroke-width="0.5"/>
<text x="522" y="281" text-anchor="middle" font-family="JetBrains Mono, monospace" font-size="9" font-weight="700" fill="#09090b">1.8×</text>

<!-- MEMORY SECTION -->
<rect x="540" y="60" width="516" height="28" fill="#f4f4f5"/>
<text x="564" y="79" font-family="Inter, system-ui, sans-serif" font-size="11" font-weight="600" fill="#52525b">MAX MEMORY USED</text>
<text x="966" y="79" font-family="Inter, system-ui, sans-serif" font-size="11" font-weight="600" fill="#52525b">SAVED</text>

<!-- Vertical separator -->
<rect x="536" y="60" width="1" height="252" fill="#e4e4e7"/>

<!-- Row 1: cold-create memory, y=88 -->
<text x="564" y="108" font-family="Inter, system-ui, sans-serif" font-size="12" font-weight="500" fill="#3f3f46">cold-create</text>
<rect x="696" y="96" width="260" height="16" rx="3" fill="#f4f4f5"/>
<rect x="696" y="96" width="96" height="16" rx="3" fill="#18181b"/>
<rect x="696" y="116" width="260" height="16" rx="3" fill="#f4f4f5"/>
<rect x="696" y="116" width="258" height="16" rx="3" fill="#e4e4e7" stroke="#d4d4d8" stroke-width="0.5"/>
<text x="966" y="108" font-family="JetBrains Mono, monospace" font-size="11" font-weight="600" fill="#09090b">79 MiB</text>
<text x="966" y="128" font-family="JetBrains Mono, monospace" font-size="11" font-weight="400" fill="#71717a">212 MiB</text>
<rect x="1020" y="100" width="28" height="18" rx="3" fill="#f4f4f5" stroke="#e4e4e7" stroke-width="0.5"/>
<text x="1034" y="113" text-anchor="middle" font-family="JetBrains Mono, monospace" font-size="8" font-weight="700" fill="#09090b">−63%</text>

<!-- Row 2: forced-unchanged memory, y=144 -->
<rect x="564" y="143" width="484" height="1" fill="#f4f4f5"/>
<text x="564" y="164" font-family="Inter, system-ui, sans-serif" font-size="12" font-weight="500" fill="#3f3f46">forced-unchanged</text>
<rect x="696" y="152" width="260" height="16" rx="3" fill="#f4f4f5"/>
<rect x="696" y="152" width="108" height="16" rx="3" fill="#18181b"/>
<rect x="696" y="172" width="260" height="16" rx="3" fill="#f4f4f5"/>
<rect x="696" y="172" width="260" height="16" rx="3" fill="#e4e4e7" stroke="#d4d4d8" stroke-width="0.5"/>
<text x="966" y="164" font-family="JetBrains Mono, monospace" font-size="11" font-weight="600" fill="#09090b">89 MiB</text>
<text x="966" y="184" font-family="JetBrains Mono, monospace" font-size="11" font-weight="400" fill="#71717a">214 MiB</text>
<rect x="1020" y="156" width="28" height="18" rx="3" fill="#f4f4f5" stroke="#e4e4e7" stroke-width="0.5"/>
<text x="1034" y="169" text-anchor="middle" font-family="JetBrains Mono, monospace" font-size="8" font-weight="700" fill="#09090b">−58%</text>

<!-- Row 3: sparse-update memory, y=200 -->
<rect x="564" y="199" width="484" height="1" fill="#f4f4f5"/>
<text x="564" y="220" font-family="Inter, system-ui, sans-serif" font-size="12" font-weight="500" fill="#3f3f46">sparse-update</text>
<rect x="696" y="208" width="260" height="16" rx="3" fill="#f4f4f5"/>
<rect x="696" y="208" width="108" height="16" rx="3" fill="#18181b"/>
<rect x="696" y="228" width="260" height="16" rx="3" fill="#f4f4f5"/>
<rect x="696" y="228" width="260" height="16" rx="3" fill="#e4e4e7" stroke="#d4d4d8" stroke-width="0.5"/>
<text x="966" y="220" font-family="JetBrains Mono, monospace" font-size="11" font-weight="600" fill="#09090b">89 MiB</text>
<text x="966" y="240" font-family="JetBrains Mono, monospace" font-size="11" font-weight="400" fill="#71717a">214 MiB</text>
<rect x="1020" y="212" width="28" height="18" rx="3" fill="#f4f4f5" stroke="#e4e4e7" stroke-width="0.5"/>
<text x="1034" y="225" text-anchor="middle" font-family="JetBrains Mono, monospace" font-size="8" font-weight="700" fill="#09090b">−58%</text>

<!-- Row 4: prune-update memory, y=256 -->
<rect x="564" y="255" width="484" height="1" fill="#f4f4f5"/>
<text x="564" y="276" font-family="Inter, system-ui, sans-serif" font-size="12" font-weight="500" fill="#3f3f46">prune-update</text>
<rect x="696" y="264" width="260" height="16" rx="3" fill="#f4f4f5"/>
<rect x="696" y="264" width="115" height="16" rx="3" fill="#18181b"/>
<rect x="696" y="284" width="260" height="16" rx="3" fill="#f4f4f5"/>
<rect x="696" y="284" width="260" height="16" rx="3" fill="#e4e4e7" stroke="#d4d4d8" stroke-width="0.5"/>
<text x="966" y="276" font-family="JetBrains Mono, monospace" font-size="11" font-weight="600" fill="#09090b">95 MiB</text>
<text x="966" y="296" font-family="JetBrains Mono, monospace" font-size="11" font-weight="400" fill="#71717a">214 MiB</text>
<rect x="1020" y="268" width="28" height="18" rx="3" fill="#f4f4f5" stroke="#e4e4e7" stroke-width="0.5"/>
<text x="1034" y="281" text-anchor="middle" font-family="JetBrains Mono, monospace" font-size="8" font-weight="700" fill="#09090b">−56%</text>

<!-- Bottom section divider -->
<rect x="4" y="312" width="1052" height="1" fill="#e4e4e7"/>

<!-- Summary footer -->
<rect x="4" y="313" width="1052" height="147" fill="#ffffff"/>

<!-- Footer accent dots -->
<circle cx="28" cy="340" r="4" fill="#6366f1" opacity="0.15"/>
<circle cx="28" cy="340" r="2" fill="#6366f1"/>

<text x="42" y="344" font-family="Inter, system-ui, sans-serif" font-size="12" font-weight="600" fill="#09090b">Key Takeaway</text>
<text x="42" y="364" font-family="Inter, system-ui, sans-serif" font-size="11" font-weight="400" fill="#52525b">Shin skips unchanged objects in 0.46 s where AWS CDK re-syncs the full archive in 28.3 s.</text>
<text x="42" y="382" font-family="Inter, system-ui, sans-serif" font-size="11" font-weight="400" fill="#52525b">Cold deploys are 1.9× faster; incremental deploys are up to 61× faster with 58–63% less memory.</text>

<!-- Footer stats row -->
<g transform="translate(42, 400)" font-family="JetBrains Mono, monospace">
  <rect width="90" height="36" rx="4" fill="#f4f4f5" stroke="#e4e4e7" stroke-width="0.5"/>
  <text x="45" y="14" text-anchor="middle" font-size="8" font-weight="600" fill="#a1a1aa">FASTEST</text>
  <text x="45" y="28" text-anchor="middle" font-size="12" font-weight="700" fill="#16a34a">61.4×</text>

  <rect x="100" width="90" height="36" rx="4" fill="#f4f4f5" stroke="#e4e4e7" stroke-width="0.5"/>
  <text x="145" y="14" text-anchor="middle" font-size="8" font-weight="600" fill="#a1a1aa">MEM SAVED</text>
  <text x="145" y="28" text-anchor="middle" font-size="12" font-weight="700" fill="#09090b">133 MiB</text>

  <rect x="200" width="90" height="36" rx="4" fill="#f4f4f5" stroke="#e4e4e7" stroke-width="0.5"/>
  <text x="245" y="14" text-anchor="middle" font-size="8" font-weight="600" fill="#a1a1aa">COLD CREATE</text>
  <text x="245" y="28" text-anchor="middle" font-size="12" font-weight="700" fill="#09090b">1.92×</text>

  <rect x="300" width="90" height="36" rx="4" fill="#f4f4f5" stroke="#e4e4e7" stroke-width="0.5"/>
  <text x="345" y="14" text-anchor="middle" font-size="8" font-weight="600" fill="#a1a1aa">PRUNE</text>
  <text x="345" y="28" text-anchor="middle" font-size="12" font-weight="700" fill="#09090b">1.8×</text>
</g>

<!-- Bottom border -->
<rect x="0" y="459" width="1060" height="1" fill="#e4e4e7"/>
</svg>
